<svg width="303" height="344" viewBox="0 0 303 344" fill="none" xmlns="http://www.w3.org/2000/svg">
<path d="M151.315 344L27.5748 309.613L0 0H303L275.396 309.564L151.315 344Z" fill="#264DE4"/>
<path d="M251.764 289.852L275.353 25.3154H151.5V317.679L251.764 289.852Z" fill="#2965F1"/>
<path d="M63.2147 140.146L66.6145 178.118H151.5V140.146H63.2147Z" fill="#EBEBEB"/>
<path d="M56.3835 63.2886L59.8317 101.262H151.5V63.2886H56.3835Z" fill="#EBEBEB"/>
<path d="M151.5 238.765L151.334 238.81L109.088 227.391L106.388 197.105H68.3094L73.6237 256.728L151.325 278.322L151.5 278.273V238.765Z" fill="#EBEBEB"/>
<path d="M239.542 140.146L246.39 63.2886H151.369V101.262H204.82L201.368 140.146H151.369V178.119H198.078L193.675 227.366L151.369 238.797V278.303L229.132 256.728L238.617 150.343L239.542 140.146Z" fill="white"/>
</svg>
