<svg width="132" height="18" viewBox="0 0 132 18" fill="none" xmlns="http://www.w3.org/2000/svg">
<path d="M8.81 17.21C7.13 17.21 5.63 16.86 4.31 16.16C3.01 15.44 1.99 14.46 1.25 13.22C0.51 11.98 0.14 10.57 0.14 8.99C0.14 7.39 0.51 5.98 1.25 4.76C1.99 3.52 3.01 2.55 4.31 1.85C5.63 1.15 7.13 0.799999 8.81 0.799999C10.37 0.799999 11.74 1.12 12.92 1.76C14.12 2.38 15.03 3.3 15.65 4.52L12.77 6.2C12.29 5.44 11.7 4.88 11 4.52C10.32 4.16 9.58 3.98 8.78 3.98C7.86 3.98 7.03 4.18 6.29 4.58C5.55 4.98 4.97 5.56 4.55 6.32C4.13 7.06 3.92 7.95 3.92 8.99C3.92 10.03 4.13 10.93 4.55 11.69C4.97 12.43 5.55 13 6.29 13.4C7.03 13.8 7.86 14 8.78 14C9.58 14 10.32 13.82 11 13.46C11.7 13.1 12.29 12.54 12.77 11.78L15.65 13.46C15.03 14.66 14.12 15.59 12.92 16.25C11.74 16.89 10.37 17.21 8.81 17.21ZM25.6716 17.21C24.3116 17.21 23.1116 16.96 22.0716 16.46C21.0316 15.94 20.2216 15.16 19.6416 14.12C19.0616 13.06 18.7716 11.73 18.7716 10.13V0.979999H22.5216V9.62C22.5216 11.06 22.8416 12.14 23.4816 12.86C24.1416 13.56 25.0716 13.91 26.2716 13.91C27.1516 13.91 27.9116 13.73 28.5516 13.37C29.2116 13.01 29.7216 12.47 30.0816 11.75C30.4616 11.03 30.6516 10.14 30.6516 9.08V0.979999H34.4016V17H30.8316V12.68L31.4616 14C30.9216 15.04 30.1316 15.84 29.0916 16.4C28.0516 16.94 26.9116 17.21 25.6716 17.21ZM39.3116 17V0.979999H42.8816V5.39L42.4616 4.1C42.9416 3.02 43.6916 2.2 44.7116 1.64C45.7516 1.08 47.0416 0.799999 48.5816 0.799999V4.37C48.4216 4.33 48.2716 4.31 48.1316 4.31C47.9916 4.29 47.8516 4.28 47.7116 4.28C46.2916 4.28 45.1616 4.7 44.3216 5.54C43.4816 6.36 43.0616 7.59 43.0616 9.23V17H39.3116ZM56.8592 17.21C55.5192 17.21 54.2292 17.04 52.9892 16.7C51.7692 16.34 50.7992 15.91 50.0792 15.41L51.5192 12.56C52.2392 13.02 53.0992 13.4 54.0992 13.7C55.0992 14 56.0992 14.15 57.0992 14.15C58.2792 14.15 59.1292 13.99 59.6492 13.67C60.1892 13.35 60.4592 12.92 60.4592 12.38C60.4592 11.94 60.2792 11.61 59.9192 11.39C59.5592 11.15 59.0892 10.97 58.5092 10.85C57.9292 10.73 57.2792 10.62 56.5592 10.52C55.8592 10.42 55.1492 10.29 54.4292 10.13C53.7292 9.95 53.0892 9.7 52.5092 9.38C51.9292 9.04 51.4592 8.59 51.0992 8.03C50.7392 7.47 50.5592 6.73 50.5592 5.81C50.5592 4.79 50.8492 3.91 51.4292 3.17C52.0092 2.41 52.8192 1.83 53.8592 1.43C54.9192 1.01 56.1692 0.799999 57.6092 0.799999C58.6892 0.799999 59.7792 0.92 60.8792 1.16C61.9792 1.4 62.8892 1.74 63.6092 2.18L62.1692 5.03C61.4092 4.57 60.6392 4.26 59.8592 4.1C59.0992 3.92 58.3392 3.83 57.5792 3.83C56.4392 3.83 55.5892 4 55.0292 4.34C54.4892 4.68 54.2192 5.11 54.2192 5.63C54.2192 6.11 54.3992 6.47 54.7592 6.71C55.1192 6.95 55.5892 7.14 56.1692 7.28C56.7492 7.42 57.3892 7.54 58.0892 7.64C58.8092 7.72 59.5192 7.85 60.2192 8.03C60.9192 8.21 61.5592 8.46 62.1392 8.78C62.7392 9.08 63.2192 9.51 63.5792 10.07C63.9392 10.63 64.1192 11.36 64.1192 12.26C64.1192 13.26 63.8192 14.13 63.2192 14.87C62.6392 15.61 61.8092 16.19 60.7292 16.61C59.6492 17.01 58.3592 17.21 56.8592 17.21ZM74.5487 17.21C72.9087 17.21 71.4487 16.86 70.1687 16.16C68.8887 15.44 67.8787 14.46 67.1387 13.22C66.3987 11.98 66.0287 10.57 66.0287 8.99C66.0287 7.39 66.3987 5.98 67.1387 4.76C67.8787 3.52 68.8887 2.55 70.1687 1.85C71.4487 1.15 72.9087 0.799999 74.5487 0.799999C76.2087 0.799999 77.6787 1.15 78.9587 1.85C80.2587 2.55 81.2687 3.51 81.9887 4.73C82.7287 5.95 83.0987 7.37 83.0987 8.99C83.0987 10.57 82.7287 11.98 81.9887 13.22C81.2687 14.46 80.2587 15.44 78.9587 16.16C77.6787 16.86 76.2087 17.21 74.5487 17.21ZM74.5487 14C75.4687 14 76.2887 13.8 77.0087 13.4C77.7287 13 78.2887 12.42 78.6887 11.66C79.1087 10.9 79.3187 10.01 79.3187 8.99C79.3187 7.95 79.1087 7.06 78.6887 6.32C78.2887 5.56 77.7287 4.98 77.0087 4.58C76.2887 4.18 75.4787 3.98 74.5787 3.98C73.6587 3.98 72.8387 4.18 72.1187 4.58C71.4187 4.98 70.8587 5.56 70.4387 6.32C70.0187 7.06 69.8087 7.95 69.8087 8.99C69.8087 10.01 70.0187 10.9 70.4387 11.66C70.8587 12.42 71.4187 13 72.1187 13.4C72.8387 13.8 73.6487 14 74.5487 14ZM94.0346 17.21C92.3546 17.21 90.8546 16.86 89.5346 16.16C88.2346 15.44 87.2146 14.46 86.4746 13.22C85.7346 11.98 85.3646 10.57 85.3646 8.99C85.3646 7.39 85.7346 5.98 86.4746 4.76C87.2146 3.52 88.2346 2.55 89.5346 1.85C90.8546 1.15 92.3546 0.799999 94.0346 0.799999C95.5946 0.799999 96.9646 1.12 98.1446 1.76C99.3446 2.38 100.255 3.3 100.875 4.52L97.9946 6.2C97.5146 5.44 96.9246 4.88 96.2246 4.52C95.5446 4.16 94.8046 3.98 94.0046 3.98C93.0846 3.98 92.2546 4.18 91.5146 4.58C90.7746 4.98 90.1946 5.56 89.7746 6.32C89.3546 7.06 89.1446 7.95 89.1446 8.99C89.1446 10.03 89.3546 10.93 89.7746 11.69C90.1946 12.43 90.7746 13 91.5146 13.4C92.2546 13.8 93.0846 14 94.0046 14C94.8046 14 95.5446 13.82 96.2246 13.46C96.9246 13.1 97.5146 12.54 97.9946 11.78L100.875 13.46C100.255 14.66 99.3446 15.59 98.1446 16.25C96.9646 16.89 95.5946 17.21 94.0346 17.21ZM109.066 17.21C107.726 17.21 106.436 17.04 105.196 16.7C103.976 16.34 103.006 15.91 102.286 15.41L103.726 12.56C104.446 13.02 105.306 13.4 106.306 13.7C107.306 14 108.306 14.15 109.306 14.15C110.486 14.15 111.336 13.99 111.856 13.67C112.396 13.35 112.666 12.92 112.666 12.38C112.666 11.94 112.486 11.61 112.126 11.39C111.766 11.15 111.296 10.97 110.716 10.85C110.136 10.73 109.486 10.62 108.766 10.52C108.066 10.42 107.356 10.29 106.636 10.13C105.936 9.95 105.296 9.7 104.716 9.38C104.136 9.04 103.666 8.59 103.306 8.03C102.946 7.47 102.766 6.73 102.766 5.81C102.766 4.79 103.056 3.91 103.636 3.17C104.216 2.41 105.026 1.83 106.066 1.43C107.126 1.01 108.376 0.799999 109.816 0.799999C110.896 0.799999 111.986 0.92 113.086 1.16C114.186 1.4 115.096 1.74 115.816 2.18L114.376 5.03C113.616 4.57 112.846 4.26 112.066 4.1C111.306 3.92 110.546 3.83 109.786 3.83C108.646 3.83 107.796 4 107.236 4.34C106.696 4.68 106.426 5.11 106.426 5.63C106.426 6.11 106.606 6.47 106.966 6.71C107.326 6.95 107.796 7.14 108.376 7.28C108.956 7.42 109.596 7.54 110.296 7.64C111.016 7.72 111.726 7.85 112.426 8.03C113.126 8.21 113.766 8.46 114.346 8.78C114.946 9.08 115.426 9.51 115.786 10.07C116.146 10.63 116.326 11.36 116.326 12.26C116.326 13.26 116.026 14.13 115.426 14.87C114.846 15.61 114.016 16.19 112.936 16.61C111.856 17.01 110.566 17.21 109.066 17.21ZM124.506 17.21C123.166 17.21 121.876 17.04 120.636 16.7C119.416 16.34 118.446 15.91 117.726 15.41L119.166 12.56C119.886 13.02 120.746 13.4 121.746 13.7C122.746 14 123.746 14.15 124.746 14.15C125.926 14.15 126.776 13.99 127.296 13.67C127.836 13.35 128.106 12.92 128.106 12.38C128.106 11.94 127.926 11.61 127.566 11.39C127.206 11.15 126.736 10.97 126.156 10.85C125.576 10.73 124.926 10.62 124.206 10.52C123.506 10.42 122.796 10.29 122.076 10.13C121.376 9.95 120.736 9.7 120.156 9.38C119.576 9.04 119.106 8.59 118.746 8.03C118.386 7.47 118.206 6.73 118.206 5.81C118.206 4.79 118.496 3.91 119.076 3.17C119.656 2.41 120.466 1.83 121.506 1.43C122.566 1.01 123.816 0.799999 125.256 0.799999C126.336 0.799999 127.426 0.92 128.526 1.16C129.626 1.4 130.536 1.74 131.256 2.18L129.816 5.03C129.056 4.57 128.286 4.26 127.506 4.1C126.746 3.92 125.986 3.83 125.226 3.83C124.086 3.83 123.236 4 122.676 4.34C122.136 4.68 121.866 5.11 121.866 5.63C121.866 6.11 122.046 6.47 122.406 6.71C122.766 6.95 123.236 7.14 123.816 7.28C124.396 7.42 125.036 7.54 125.736 7.64C126.456 7.72 127.166 7.85 127.866 8.03C128.566 8.21 129.206 8.46 129.786 8.78C130.386 9.08 130.866 9.51 131.226 10.07C131.586 10.63 131.766 11.36 131.766 12.26C131.766 13.26 131.466 14.13 130.866 14.87C130.286 15.61 129.456 16.19 128.376 16.61C127.296 17.01 126.006 17.21 124.506 17.21Z" fill="black"/>
</svg>
